PathFileType	4	(X/Y/Z)	Patient4_TMGait_0pt8_01_right_49.trc.trc
DataRate	CameraRate	NumFrames	NumMarkers	Units	OrigDataRate	OrigDataStartFrame	OrigNumFrames
88.050314465409	88.050314465409	4	33	mm	88.050314465409	71	       141
Frame#	Time	Sacral			L.Shoulder			Chest			R.Shoulder			Neck			R.ASIS			L.ASIS			R.Thigh.Superior			R.Thigh.Lateral			R.Thigh.Inferior			R.Patella			L.Thigh.Superior			L.Thigh.Lateral			L.Thigh.Inferior			L.Patella			L.Shank.Superior			L.Shank.Lateral			L.Shank.Inferior			R.Shank.Superior			R.Shank.Lateral			R.Shank.Inferior			R.Heel			R.Midfoot.Superior			R.Midfoot.Lateral			R.Toe			L.Heel			L.Midfoot.Lateral			L.Midfoot.Superior			L.Toe			L.Elbow			L.Wrist			R.Elbow			R.Wrist			
		X1	Y1	Z1	X2	Y2	Z2	X3	Y3	Z3	X4	Y4	Z4	X5	Y5	Z5	X6	Y6	Z6	X7	Y7	Z7	X8	Y8	Z8	X9	Y9	Z9	X10	Y10	Z10	X11	Y11	Z11	X12	Y12	Z12	X13	Y13	Z13	X14	Y14	Z14	X15	Y15	Z15	X16	Y16	Z16	X17	Y17	Z17	X18	Y18	Z18	X19	Y19	Z19	X20	Y20	Z20	X21	Y21	Z21	X22	Y22	Z22	X23	Y23	Z23	X24	Y24	Z24	X25	Y25	Z25	X26	Y26	Z26	X27	Y27	Z27	X28	Y28	Z28	X29	Y29	Z29	X30	Y30	Z30	X31	Y31	Z31	X32	Y32	Z32	X33	Y33	Z33	

71	55.965000000000	899.062034856953	1001.795243223527	550.044787489274	1051.831181864666	1423.584302836515	353.042444927207	1176.338424795814	1352.528625918900	498.169312921425	1119.613194269361	1426.617390729680	681.960555577615	1055.868522130524	1482.749254359290	512.244278360005	1129.386397636921	931.244902264079	649.792135945835	1096.835615178749	943.868318108502	374.741540391654	1114.161885929593	716.457586002337	626.728206706539	1001.287408763849	629.827224249964	688.158185064286	1056.494984693159	560.039032050652	609.159825836927	1033.039324947872	476.456074953786	613.217181625972	1172.588618099755	765.307190810334	404.943151695749	1121.779698929314	632.908513288034	330.316499900671	1231.172284895086	579.380864088013	386.792795861236	1260.235693282320	517.857233815104	385.431090353954	1248.575840785558	445.972268609735	378.072365795283	1190.874225066052	309.952589565705	334.257269106324	1288.714737249044	219.866280377189	386.572924644316	991.316816633604	395.976375227236	618.849698748258	906.289238867954	303.120927598374	681.514674974694	932.738657612942	204.233354004352	614.528552260238	780.392370146960	47.312332372278	580.515915770221	952.965733835546	97.191456980480	616.491059578986	863.422448714639	37.710116183735	654.410853249815	1071.769699548720	40.708060817397	643.973574157514	1220.393323439159	39.595982642218	432.271186390999	1292.747392621340	44.324014992434	350.900015652216	1360.805498845341	123.841829248638	368.446064700628	1494.566858208833	97.859818840550	340.991305108698	897.929661810901	1103.652959362807	274.359117200510	833.537181735564	853.542163897532	299.078210879206	1283.741179578791	1130.832446871573	786.264975567690	1496.335921481202	1244.143148001480	716.191685428980	
72	55.976357142857	900.042950447161	1000.534093993236	547.443591325761	1052.304165485046	1422.559969861949	351.129499009311	1176.666802210847	1351.548474476131	496.423724559191	1119.394181725239	1425.655787187943	679.972495359648	1055.872558766820	1481.529025253946	510.426719705918	1129.805694008576	929.742005715780	647.872549339369	1098.144189209303	942.546712997781	372.752120068493	1113.922858035390	714.864555854764	625.260172565505	1000.419182270961	628.777638170480	686.448599635167	1055.544797553104	558.441812582075	607.811146503939	1031.250277885098	474.371173371013	611.804797977223	1173.815649940687	763.552150912733	403.417770654237	1121.409376545010	630.624094092260	330.919634020878	1230.834587223616	577.280941869117	387.039561062177	1258.754616501114	514.923576750363	386.837024748690	1246.704088764540	442.592773794223	379.601583457186	1187.212009081089	307.117450007092	336.837356404889	1283.676979487986	216.175362497571	389.752879692334	988.090333622341	394.435162746427	617.587834319478	901.453495604096	303.276741927026	680.642083658318	925.969356592245	203.744192330268	614.054372683802	771.396713394480	48.339177436938	580.742686287524	944.155510883923	97.262928282043	616.521857909057	854.415144312815	38.143601917036	654.595695341913	1062.734373954123	40.330959168001	644.122095090899	1211.928699005413	38.680243509110	435.757920644014	1284.128694083854	42.234409210108	354.146862709911	1354.578682521988	118.881644466356	372.672083573150	1487.422808205407	88.934411614329	344.543991917401	894.743606143197	1105.099731564519	273.089767410372	826.881370706157	855.915251524838	298.971446319132	1287.339025226333	1132.917291250406	783.551968470852	1492.098092053401	1257.228465766162	711.842282348940	
73	55.987714285714	901.116876759020	999.284659112015	544.680083136527	1052.857090470972	1421.575239028583	349.063159886507	1177.032502369028	1350.678155437435	494.582271940056	1119.132064420023	1424.773466252920	677.907841767235	1055.923357259331	1480.412526555427	508.461374596878	1130.325438448653	928.318415265112	645.819022457219	1099.563624092559	941.395125227547	370.655990674226	1114.014617281575	713.368941296042	623.717372934921	999.923766370629	627.740754055154	684.596155652723	1055.103178280412	556.854803276035	606.386190611556	1029.965672326402	472.194862916689	610.301775187877	1175.315839622666	762.023865143537	401.900772346469	1121.517891497047	628.781470014072	331.306751926178	1230.777740265007	575.505009797467	387.453480980694	1257.440075500964	512.174320377259	388.338405886680	1244.977851402570	439.404455447824	380.996178093563	1183.656123964830	304.646428282032	338.790457309372	1278.301164524499	212.586217535441	392.588131868608	985.254548932843	392.888940767338	616.253079863186	896.897060993321	303.574247643834	679.677023752098	919.404708470008	203.369437829102	613.570221087933	762.454708767783	49.700780522311	581.006571745170	935.489422212338	97.417017864665	616.618226634525	845.458762969491	38.735606748549	654.806617477505	1053.732705747579	39.943600325948	644.269971954044	1202.450271231382	38.015706138143	438.500927160334	1274.678153975053	40.374756940068	356.786589362187	1347.661705478811	113.956144210149	376.592755246576	1479.586802805060	79.764507077789	348.025281146057	892.432592374328	1106.130365729172	271.607517077776	821.532633081827	857.803095657308	298.449220345203	1290.219349270201	1134.626143665835	781.016868676932	1487.070591797026	1268.787403114030	707.768668200063	
74	55.999071428571	902.227349903276	998.135900536150	541.792231843504	1053.482421368067	1420.689661683051	346.861900143778	1177.433151223362	1349.978180630635	492.657022832993	1118.851478966056	1424.039417715400	675.786580903921	1056.031727548688	1479.472150403793	506.351223517600	1130.928731516112	927.036804796628	643.627203387073	1101.040118800825	940.489300050171	368.467327176178	1114.392063275806	712.033490265209	622.071491132653	999.787450942351	626.778777851138	682.620831126084	1055.137901617831	555.346156544913	604.880757411510	1029.184066067478	469.986916563033	608.753584289104	1177.001592952173	760.785835631680	400.418626430094	1122.068222739510	627.482781342713	331.354922964253	1230.943913751490	574.123666536744	387.912766108544	1256.271254082507	509.751211878877	389.744538640878	1243.412729026261	436.571817374654	382.115388764898	1180.366863463736	302.649108889593	339.960488613615	1272.819677334775	209.312702035336	394.927437129351	982.798047577860	391.407879533601	614.896110877643	892.616376031515	304.088520928151	678.655333197410	913.067975604979	203.184373519263	613.117124415958	753.589085955275	51.490590661484	581.323154561263	927.010102826489	97.665119498725	616.800724366231	836.567573468592	39.523289067299	655.047810925475	1044.764460764599	39.564574481607	644.406262324389	1192.483639847268	37.603849372354	440.456094986145	1264.890010777188	38.836492162619	358.757654399153	1340.325419739836	109.412952163074	380.002063919231	1471.391120662740	71.070435185220	351.235608338138	891.034005689249	1106.733614621080	269.899598711298	817.550172874010	859.167300257254	297.472020610278	1292.312634578039	1135.905887085907	778.700994777946	1481.386192017718	1278.759147695333	703.990629928367	
